<?xml version="1.0" standalone="no"?>
<!DOCTYPE svg PUBLIC "-//W3C//DTD SVG 20010904//EN"
 "http://www.w3.org/TR/2001/REC-SVG-20010904/DTD/svg10.dtd">
<svg version="1.0" xmlns="http://www.w3.org/2000/svg"
 width="100.000000pt" height="100.000000pt" viewBox="0 0 100.000000 100.000000"
 preserveAspectRatio="xMidYMid meet">
<metadata>
Created by potrace 1.11, written by Peter Selinger 2001-2013
</metadata>
<g transform="translate(0.000000,100.000000) scale(0.100000,-0.100000)"
fill="#000000" stroke="none">
<path d="M244 933 l-25 -27 3 -246 3 -245 28 -53 c16 -30 27 -55 25 -55 -64
-31 -110 -56 -136 -76 -42 -31 -79 -94 -88 -148 l-7 -43 452 0 451 0 0 21 c0
81 -66 167 -165 214 -33 16 -61 29 -63 30 -1 1 11 31 28 66 l30 64 0 238 0
238 -25 24 -24 25 -231 0 -231 0 -25 -27z m485 -27 c9 -11 11 -78 9 -248 -3
-216 -5 -236 -25 -273 -41 -77 -94 -112 -185 -122 -102 -11 -195 36 -241 120
-21 39 -22 57 -25 269 -2 152 0 234 8 247 10 20 19 21 229 21 178 0 221 -3
230 -14z m-377 -648 c52 -27 57 -29 136 -33 69 -4 143 13 173 41 17 16 22 14
95 -22 78 -40 125 -85 143 -136 l10 -28 -403 0 c-221 0 -405 3 -409 6 -9 9 27
75 55 101 17 16 117 75 155 92 1 1 22 -9 45 -21z"/>
<path d="M320 680 l0 -100 180 0 180 0 0 100 0 100 -180 0 -180 0 0 -100z
m320 0 l0 -60 -140 0 -140 0 0 60 0 60 140 0 140 0 0 -60z"/>
</g>
</svg>
